<svg width="55" height="44" fill="none" xmlns="http://www.w3.org/2000/svg"><path d="M20.833.667c-11.04 0-20 7.173-20 16 0 5.04 2.88 9.493 7.414 12.426l-2.08 6.24 6.666-4a23.569 23.569 0 0 0 7.76 1.334C19.9 30.987 19.5 29.2 19.5 27.333c0-8.826 8.347-16 18.667-16 .506 0 1.013 0 1.493.08C36.94 5.173 29.58.667 20.833.667Zm-8 6.666a2.667 2.667 0 1 1 0 5.334 2.667 2.667 0 0 1 0-5.334Zm13.334 0a2.667 2.667 0 1 1 0 5.334 2.667 2.667 0 0 1 0-5.334Zm12 6.667c-8.827 0-16 5.973-16 13.333s7.173 13.334 16 13.334c1.786 0 3.493-.214 5.093-.667l5.573 3.333-1.653-4.986c4.187-2.427 6.987-6.454 6.987-11.014 0-7.36-7.174-13.333-16-13.333Zm-5.334 6.667a2.667 2.667 0 1 1 0 5.333 2.667 2.667 0 0 1 0-5.333Zm10.667 0a2.667 2.667 0 1 1 0 5.333 2.667 2.667 0 0 1 0-5.333Z" fill="#fff"/></svg>