<svg width="55" height="53" fill="none" xmlns="http://www.w3.org/2000/svg"><path d="M27.5.333A26.667 26.667 0 0 0 .833 27c0 11.787 7.654 21.787 18.24 25.333 1.334.214 1.76-.613 1.76-1.333v-4.507c-7.386 1.6-8.96-3.573-8.96-3.573-1.226-3.093-2.96-3.92-2.96-3.92-2.426-1.653.187-1.6.187-1.6 2.667.187 4.08 2.747 4.08 2.747C15.5 44.2 19.42 43 20.94 42.36c.24-1.733.933-2.907 1.68-3.573-5.92-.667-12.133-2.96-12.133-13.12 0-2.96 1.013-5.334 2.746-7.227-.266-.667-1.2-3.44.267-7.04 0 0 2.24-.72 7.333 2.72 2.107-.587 4.4-.88 6.667-.88 2.267 0 4.56.293 6.667.88C39.26 10.68 41.5 11.4 41.5 11.4c1.467 3.6.533 6.373.267 7.04 1.733 1.893 2.746 4.267 2.746 7.227 0 10.186-6.24 12.426-12.186 13.093.96.827 1.84 2.453 1.84 4.933V51c0 .72.426 1.573 1.786 1.333C46.54 48.76 54.167 38.787 54.167 27A26.667 26.667 0 0 0 27.5.333Z" fill="#fff"/></svg>